<mxfile host="65bd71144e">
    <diagram id="m4DMJg5mgSDorChgPQiI" name="Page-1">
        <mxGraphModel dx="663" dy="686" grid="1" gridSize="10" guides="1" tooltips="1" connect="1" arrows="1" fold="1" page="1" pageScale="1" pageWidth="1920" pageHeight="1200" math="0" shadow="0">
            <root>
                <mxCell id="0"/>
                <mxCell id="1" parent="0"/>
                <mxCell id="5" style="edgeStyle=none;html=1;" edge="1" parent="1" source="3">
                    <mxGeometry relative="1" as="geometry">
                        <mxPoint x="280" y="565" as="targetPoint"/>
                    </mxGeometry>
                </mxCell>
                <mxCell id="3" value="" style="ellipse;fillColor=strokeColor;" vertex="1" parent="1">
                    <mxGeometry x="140" y="550" width="30" height="30" as="geometry"/>
                </mxCell>
                <mxCell id="7" style="edgeStyle=none;html=1;entryX=0;entryY=0.5;entryDx=0;entryDy=0;" edge="1" parent="1" source="6" target="8">
                    <mxGeometry relative="1" as="geometry">
                        <mxPoint x="370" y="690" as="targetPoint"/>
                        <Array as="points">
                            <mxPoint x="370" y="670"/>
                        </Array>
                    </mxGeometry>
                </mxCell>
                <mxCell id="9" style="edgeStyle=none;html=1;" edge="1" parent="1" source="6">
                    <mxGeometry relative="1" as="geometry">
                        <mxPoint x="620" y="565" as="targetPoint"/>
                    </mxGeometry>
                </mxCell>
                <mxCell id="6" value="Skriv en tilføjelse" style="html=1;align=center;verticalAlign=top;rounded=1;absoluteArcSize=1;arcSize=10;dashed=0;" vertex="1" parent="1">
                    <mxGeometry x="300" y="545" width="140" height="40" as="geometry"/>
                </mxCell>
                <mxCell id="11" style="edgeStyle=none;html=1;entryX=0.566;entryY=0.993;entryDx=0;entryDy=0;entryPerimeter=0;" edge="1" parent="1" source="8" target="10">
                    <mxGeometry relative="1" as="geometry">
                        <Array as="points">
                            <mxPoint x="716" y="670"/>
                        </Array>
                    </mxGeometry>
                </mxCell>
                <mxCell id="8" value="Tilføj antal" style="html=1;align=center;verticalAlign=top;rounded=1;absoluteArcSize=1;arcSize=10;dashed=0;" vertex="1" parent="1">
                    <mxGeometry x="430" y="650" width="140" height="40" as="geometry"/>
                </mxCell>
                <mxCell id="15" style="edgeStyle=none;html=1;entryX=0;entryY=0.5;entryDx=0;entryDy=0;" edge="1" parent="1" source="10" target="14">
                    <mxGeometry relative="1" as="geometry"/>
                </mxCell>
                <mxCell id="10" value="Tryk tilføj" style="html=1;shape=mxgraph.infographic.ribbonSimple;notch1=20;notch2=0;align=center;verticalAlign=middle;fontSize=14;fontStyle=0;fillColor=#FFFFFF;flipH=0;spacingRight=0;spacingLeft=14;" vertex="1" parent="1">
                    <mxGeometry x="620" y="545" width="170" height="40" as="geometry"/>
                </mxCell>
                <mxCell id="16" style="edgeStyle=none;html=1;entryX=0;entryY=0;entryDx=42.5;entryDy=0;entryPerimeter=0;" edge="1" parent="1" source="14" target="17">
                    <mxGeometry relative="1" as="geometry">
                        <mxPoint x="940" y="640" as="targetPoint"/>
                    </mxGeometry>
                </mxCell>
                <mxCell id="18" style="edgeStyle=none;html=1;entryX=0;entryY=0;entryDx=42.5;entryDy=40;entryPerimeter=0;" edge="1" parent="1" source="14" target="19">
                    <mxGeometry relative="1" as="geometry">
                        <mxPoint x="940.0000000000002" y="480" as="targetPoint"/>
                    </mxGeometry>
                </mxCell>
                <mxCell id="14" value="Task er tilføjet til listen&amp;nbsp;&lt;br&gt;to-do" style="html=1;align=center;verticalAlign=top;rounded=1;absoluteArcSize=1;arcSize=10;dashed=0;" vertex="1" parent="1">
                    <mxGeometry x="850" y="545" width="140" height="40" as="geometry"/>
                </mxCell>
                <mxCell id="24" style="edgeStyle=none;html=1;entryX=0;entryY=0.5;entryDx=0;entryDy=0;" edge="1" parent="1" source="17" target="25">
                    <mxGeometry relative="1" as="geometry">
                        <mxPoint x="1250" y="670" as="targetPoint"/>
                    </mxGeometry>
                </mxCell>
                <mxCell id="17" value="Tryk slet" style="html=1;shape=mxgraph.infographic.ribbonSimple;notch1=20;notch2=0;align=center;verticalAlign=middle;fontSize=14;fontStyle=0;fillColor=#FFFFFF;flipH=0;spacingRight=0;spacingLeft=14;" vertex="1" parent="1">
                    <mxGeometry x="1020" y="640" width="170" height="40" as="geometry"/>
                </mxCell>
                <mxCell id="22" style="edgeStyle=none;html=1;entryX=0;entryY=1;entryDx=0;entryDy=0;" edge="1" parent="1" source="19" target="21">
                    <mxGeometry relative="1" as="geometry">
                        <mxPoint x="1129.9999999999998" y="450" as="targetPoint"/>
                    </mxGeometry>
                </mxCell>
                <mxCell id="19" value="Tryk færdig" style="html=1;shape=mxgraph.infographic.ribbonSimple;notch1=20;notch2=0;align=center;verticalAlign=middle;fontSize=14;fontStyle=0;fillColor=#FFFFFF;flipH=0;spacingRight=0;spacingLeft=14;" vertex="1" parent="1">
                    <mxGeometry x="1010" y="400" width="170" height="40" as="geometry"/>
                </mxCell>
                <mxCell id="23" style="edgeStyle=none;html=1;entryX=0;entryY=0;entryDx=127.5;entryDy=0;entryPerimeter=0;" edge="1" parent="1" source="21" target="17">
                    <mxGeometry relative="1" as="geometry"/>
                </mxCell>
                <mxCell id="26" style="edgeStyle=none;html=1;" edge="1" parent="1" source="21">
                    <mxGeometry relative="1" as="geometry">
                        <mxPoint x="1180" y="430" as="targetPoint"/>
                    </mxGeometry>
                </mxCell>
                <mxCell id="21" value="Task er tilføjet til listen&lt;br&gt;færdig" style="html=1;align=center;verticalAlign=top;rounded=1;absoluteArcSize=1;arcSize=10;dashed=0;" vertex="1" parent="1">
                    <mxGeometry x="1260" y="500" width="140" height="40" as="geometry"/>
                </mxCell>
                <mxCell id="25" value="Fjernes fra listen" style="html=1;align=center;verticalAlign=top;rounded=1;absoluteArcSize=1;arcSize=10;dashed=0;" vertex="1" parent="1">
                    <mxGeometry x="1400" y="640" width="140" height="40" as="geometry"/>
                </mxCell>
                <mxCell id="29" value="(addTask)" style="text;align=center;verticalAlign=middle;dashed=0;" vertex="1" parent="1">
                    <mxGeometry x="260" y="510" width="140" height="40" as="geometry"/>
                </mxCell>
                <mxCell id="30" value="(renderTask)" style="text;align=center;verticalAlign=middle;dashed=0;" vertex="1" parent="1">
                    <mxGeometry x="750" y="510" width="140" height="40" as="geometry"/>
                </mxCell>
                <mxCell id="31" value="(deleteTask)" style="text;align=center;verticalAlign=middle;dashed=0;" vertex="1" parent="1">
                    <mxGeometry x="1040" y="600" width="140" height="40" as="geometry"/>
                </mxCell>
                <mxCell id="32" value="(completeTask)" style="text;align=center;verticalAlign=middle;dashed=0;" vertex="1" parent="1">
                    <mxGeometry x="1035" y="360" width="140" height="40" as="geometry"/>
                </mxCell>
                <mxCell id="33" value="(deleteTask)" style="text;align=center;verticalAlign=middle;dashed=0;" vertex="1" parent="1">
                    <mxGeometry x="1380" y="600" width="140" height="40" as="geometry"/>
                </mxCell>
                <mxCell id="34" value="(undoTask)" style="text;align=center;verticalAlign=middle;dashed=0;" vertex="1" parent="1">
                    <mxGeometry x="1270" y="460" width="140" height="40" as="geometry"/>
                </mxCell>
            </root>
        </mxGraphModel>
    </diagram>
</mxfile>